<?xml version="1.0" encoding="utf-8"?>
<!-- Generator: Adobe Illustrator 16.0.0, SVG Export Plug-In . SVG Version: 6.00 Build 0)  -->
<!DOCTYPE svg PUBLIC "-//W3C//DTD SVG 1.1//EN" "http://www.w3.org/Graphics/SVG/1.1/DTD/svg11.dtd">
<svg version="1.1" id="Capa_1" xmlns="http://www.w3.org/2000/svg" xmlns:xlink="http://www.w3.org/1999/xlink" x="0px" y="0px"
	 width="132.366px" height="20.759px" viewBox="0 0 132.366 20.759" enable-background="new 0 0 132.366 20.759"
	 xml:space="preserve">
<g>
	<g>
		<g>
			<g>
				<g>
					<path fill="#211915" d="M8.815,11.193c0-1.284-0.732-2.328-2.146-2.328c-1.388,0-2.12,1.082-2.279,2.328H8.815z M4.39,11.83
						c-0.013,1.425,0.774,2.606,2.279,2.606c1.02,0,1.82-0.547,2.054-1.514h0.878c-0.392,1.247-1.205,2.2-2.932,2.2
						c-2.173,0-3.115-1.5-3.115-3.446c0-1.919,1.177-3.497,3.115-3.497c1.858,0,2.997,1.284,2.985,3.651H4.39z"/>
					<rect x="11.371" y="5.788" fill="#211915" width="0.784" height="9.159"/>
				</g>
				<g>
					<path fill="#211915" d="M20.271,8.803c-0.156-0.548-0.458-1.578-2.08-1.578c-0.944,0-2.332,0.611-2.332,3.193
						c0,1.64,0.668,3.117,2.332,3.117c1.085,0,1.845-0.598,2.08-1.718h1.963c-0.392,1.985-1.728,3.37-4.083,3.37
						c-2.501,0-4.294-1.639-4.294-4.795c0-3.191,1.898-4.818,4.319-4.818c2.815,0,3.954,1.879,4.058,3.23H20.271z"/>
					<path fill="#211915" d="M27.754,13.571c1.061,0,2.554-0.634,2.554-3.191c0-2.559-1.493-3.193-2.554-3.193
						c-1.06,0-2.552,0.634-2.552,3.193C25.202,12.938,26.694,13.571,27.754,13.571 M27.754,5.573c1.244,0,4.517,0.521,4.517,4.807
						c0,4.285-3.273,4.807-4.517,4.807c-1.243,0-4.515-0.521-4.515-4.807C23.239,6.093,26.511,5.573,27.754,5.573"/>
					<polygon fill="#211915" points="35.925,13.292 40.599,13.292 40.599,14.945 33.962,14.945 33.962,5.814 35.925,5.814 					"/>
					<path fill="#211915" d="M45.721,13.571c1.06,0,2.551-0.634,2.551-3.191c0-2.559-1.492-3.193-2.551-3.193
						c-1.061,0-2.554,0.634-2.554,3.193C43.167,12.938,44.66,13.571,45.721,13.571 M45.721,5.573c1.243,0,4.514,0.521,4.514,4.807
						c0,4.285-3.271,4.807-4.514,4.807c-1.245,0-4.518-0.521-4.518-4.807C41.203,6.093,44.476,5.573,45.721,5.573"/>
					<polygon fill="#211915" points="60.919,14.945 59.087,14.945 59.087,7.314 59.062,7.314 57.307,14.945 55.383,14.945 
						53.667,7.314 53.642,7.314 53.642,14.945 51.808,14.945 51.808,5.813 54.675,5.813 56.378,13.012 56.404,13.012 58.079,5.813 
						60.919,5.813 					"/>
					<path fill="#211915" d="M64.521,13.368h2.408c0.955,0,1.507-0.406,1.507-1.333c0-0.803-0.708-1.107-1.414-1.107h-2.501V13.368z
						 M64.521,9.388h2.304c0.771,0,1.388-0.292,1.388-1.019c0-0.749-0.55-0.978-1.44-0.978h-2.252V9.388z M62.636,5.814h4.568
						c2.305,0,2.893,1.396,2.893,2.34c0,1.309-0.76,1.679-1.151,1.869c1.151,0.42,1.453,1.31,1.453,2.214
						c0,0.726-0.314,1.412-0.813,1.883c-0.536,0.509-1.046,0.827-2.97,0.827h-3.98V5.814z"/>
					<rect x="71.844" y="5.814" fill="#211915" width="1.963" height="9.132"/>
					<path fill="#211915" d="M78.476,11.486h2.394l-1.165-3.612h-0.027L78.476,11.486z M77.296,14.945h-2.069l3.354-9.131h2.263
						l3.311,9.131h-2.132l-0.603-1.882h-3.469L77.296,14.945z"/>
					<polygon fill="#211915" points="91.216,5.814 93.047,5.814 93.047,14.946 91.084,14.946 87.249,8.433 87.223,8.433 
						87.223,14.946 85.39,14.946 85.39,5.814 87.458,5.814 91.188,12.173 91.216,12.173 					"/>
					<path fill="#211915" d="M99.163,13.571c1.059,0,2.552-0.634,2.552-3.191c0-2.559-1.493-3.193-2.552-3.193
						c-1.061,0-2.553,0.634-2.553,3.193C96.61,12.938,98.102,13.571,99.163,13.571 M99.163,5.573c1.241,0,4.516,0.521,4.516,4.807
						c0,4.285-3.274,4.807-4.516,4.807c-1.245,0-4.518-0.521-4.518-4.807C94.645,6.093,97.918,5.573,99.163,5.573"/>
				</g>
			</g>
		</g>
	</g>
	<g>
		<circle fill="#211915" cx="118.99" cy="10.379" r="9.822"/>
		<g>
			<path fill="#FFFFFF" d="M122.865,12.471h-0.65c-0.026,1.545-1.497,2.511-2.53,2.511c-1.033,0-1.988-0.781-1.988-2.097V7.874
				c0-1.259,0.864-2.096,2.023-2.096c1.593,0,2.384,2.177,2.503,2.509h0.641V4.941c-0.127,0.787-1.068,1.25-1.793,0.814
				c-0.855-0.516-1.864-0.814-2.945-0.814c-3.091,0-5.596,2.435-5.596,5.438c0,3.002,2.505,5.437,5.596,5.437
				C122.436,15.815,122.865,12.89,122.865,12.471"/>
			<path fill="#CBD225" d="M125.45,14.563c0,0.694-0.578,1.256-1.291,1.256c-0.714,0-1.292-0.562-1.292-1.256
				c0-0.694,0.579-1.253,1.292-1.253C124.872,13.309,125.45,13.869,125.45,14.563"/>
		</g>
	</g>
</g>
</svg>
